<?xml version="1.0" ?>
<!DOCTYPE svg  PUBLIC '-//W3C//DTD SVG 1.1//EN'  'http://www.w3.org/Graphics/SVG/1.1/DTD/svg11.dtd'>
<!-- Uploaded to: SVG Repo, www.svgrepo.com, Generator: SVG Repo Mixer Tools -->
<svg fill="#000000" width="800px" height="800px" viewBox="0 0 32 32" style="fill-rule:evenodd;clip-rule:evenodd;stroke-linejoin:round;stroke-miterlimit:2;" version="1.1" xml:space="preserve" xmlns="http://www.w3.org/2000/svg" xmlns:serif="http://www.serif.com/" xmlns:xlink="http://www.w3.org/1999/xlink">
<g id="Icon">
<path d="M26.021,5c0,-0.796 -0.316,-1.559 -0.878,-2.121c-0.563,-0.563 -1.326,-0.879 -2.122,-0.879c-3.467,0 -10.554,0 -14.021,0c-0.796,-0 -1.559,0.316 -2.121,0.879c-0.563,0.562 -0.879,1.325 -0.879,2.121l0,22c0,0.796 0.316,1.559 0.879,2.121c0.562,0.563 1.325,0.879 2.121,0.879c3.467,0 10.554,0 14.021,0c0.796,0 1.559,-0.316 2.122,-0.879c0.562,-0.562 0.878,-1.325 0.878,-2.121l0,-22Zm-2,-0l0,22c0,0.265 -0.105,0.52 -0.293,0.707c-0.187,0.188 -0.441,0.293 -0.707,0.293l-14.021,0c-0.265,0 -0.52,-0.105 -0.707,-0.293c-0.188,-0.187 -0.293,-0.442 -0.293,-0.707c-0,-0 -0,-22 -0,-22c0,-0.265 0.105,-0.52 0.293,-0.707c0.187,-0.188 0.442,-0.293 0.707,-0.293l14.021,0c0.266,-0 0.52,0.105 0.707,0.293c0.188,0.187 0.293,0.442 0.293,0.707Z"/>
<path d="M16.011,7c-1.656,0 -3,1.344 -3,3c-0,1.656 1.344,3 3,3c1.655,0 3,-1.344 3,-3c-0,-1.656 -1.345,-3 -3,-3Zm-0,2c0.552,0 1,0.448 1,1c-0,0.552 -0.448,1 -1,1c-0.552,0 -1,-0.448 -1,-1c-0,-0.552 0.448,-1 1,-1Z"/>
<path d="M16.011,15.004c-2.76,-0 -5,2.24 -5,5c-0,2.759 2.24,5 5,5c2.759,-0 5,-2.241 5,-5c-0,-2.76 -2.241,-5 -5,-5Zm-0,2c1.655,-0 3,1.344 3,3c-0,1.656 -1.345,3 -3,3c-1.656,-0 -3,-1.344 -3,-3c-0,-1.656 1.344,-3 3,-3Z"/>
<circle cx="16.011" cy="20.004" r="1"/>
</g>
</svg>